<svg width="600" height="743" viewBox="0 0 600 743" fill="none" xmlns="http://www.w3.org/2000/svg">
<path d="M7.60937 0L0 28.1937C37.8562 38.4172 71.9062 52.5266 102.309 69.9188C69.0656 94.5438 47.1422 136.645 47.1422 184.472C47.1422 205.711 51.4703 225.82 59.1844 243.777C25.0906 275.597 4.49063 320.961 4.49063 380.502C4.49063 490.939 71.4547 586.32 168.319 632.072L120.334 742.009H152.172L195.287 643.234C199.991 644.917 204.741 646.5 209.553 647.953C215.116 652.266 220.781 656.156 226.534 659.652L206.175 742.011H236.3L253.402 672.761C264.114 676.739 275.03 679.361 286.058 680.584V742.009H315.261V680.516C327.561 679.1 339.714 675.928 351.597 671.053L369.116 742.009H399.194L378.194 656.981C383.506 653.509 388.741 649.7 393.875 645.508C398.906 643.836 403.872 642.03 408.777 640.108L453.245 742.008H485.083L435.395 628.159C527.936 581.027 591.239 487.875 591.239 380.5C591.239 322.509 571.692 277.969 539.177 246.286C547.587 227.698 552.356 206.712 552.356 184.473C552.356 136.817 530.594 94.8484 497.555 70.1859C528.239 52.4766 562.323 38.2953 599.736 28.1922L592.127 0C551.095 11.0813 513.669 26.9453 480.017 46.875C426.761 17.4375 359.408 2.86875 292.183 2.94687C228.264 3.02187 164.48 16.3453 113.034 42.7094C81.4297 24.9062 46.3156 10.4531 7.61249 0.00156164L7.60937 0ZM292.192 33.4375C349.139 33.3687 406.184 43.9141 451.698 65.2313C381.211 115.063 329.952 184.294 299.902 264.903C269.703 183.441 217.65 112 142.764 61.1219C186.212 42.7719 239.155 33.4969 292.194 33.4313L292.192 33.4375ZM161.559 140.27C191.872 140.27 216.762 165.15 216.762 195.458C216.762 225.77 191.872 250.652 161.559 250.652C131.247 250.652 106.353 225.766 106.353 195.453C106.353 165.144 131.247 140.266 161.559 140.266V140.27ZM441.934 140.27C472.247 140.27 497.137 165.15 497.137 195.458C497.137 225.77 472.247 250.652 441.934 250.652C411.619 250.652 386.727 225.772 386.727 195.459C386.727 165.15 411.617 140.272 441.93 140.272L441.934 140.27ZM269.469 266.348C275.8 282.516 281.223 299.161 285.756 316.212L299.866 369.281L313.975 316.212C318.498 299.2 323.925 282.662 330.233 266.65C352.717 300.197 388.586 321.941 429.039 321.941C451.601 321.941 472.733 315.15 490.927 303.353C484.672 414.056 461.333 498.238 429.458 555.566C392.014 622.916 344.536 652.869 298.931 652.184C253.331 651.5 205.484 619.884 167.989 552.069C136.064 494.328 112.739 410.642 106.498 302.022C125.15 314.656 147.041 321.938 170.462 321.938C211.036 321.938 247 300.062 269.469 266.344V266.348ZM73.7406 269.703C74.4172 270.656 75.0906 271.609 75.7875 272.541C79.1703 399.627 104.522 497.628 142.433 566.2C148.144 576.528 154.172 586.175 160.461 595.184C84.3359 551.025 33.6922 471.288 33.6922 380.506C33.6922 330.466 48.1078 295.375 73.7422 269.705L73.7406 269.703ZM524.181 271.934C548.447 297.397 562.034 331.903 562.034 380.506C562.034 468.584 514.353 546.261 441.991 591.138C446.475 584.366 450.819 577.252 454.983 569.759C492.737 501.853 517.995 403.9 521.589 275.27C522.464 274.166 523.342 273.067 524.183 271.934H524.181ZM153.094 364.203C147.23 373.989 143.569 386.906 143.569 400.516C143.569 431.867 162.467 456.633 185.475 456.633C205.053 456.633 221.966 438.531 226.428 413.719C219.097 420.122 210.066 423.625 200.716 423.625C175.747 423.625 154.742 397.662 153.094 364.203ZM443.581 368.073C441.931 401.531 420.931 427.495 395.961 427.495C386.609 427.495 377.581 423.992 370.245 417.589C374.711 442.402 391.62 460.505 411.198 460.505C434.208 460.505 452.151 435.739 452.151 404.386C452.151 390.777 449.444 377.859 443.581 368.073ZM336.191 413.339C330.706 433.798 313.836 449.558 297.862 449.558C282.262 449.558 265.659 433.844 260.452 414.391C259.181 419.698 257.714 425.375 257.714 431.259C257.714 461.298 275.823 485.025 297.867 485.025C319.911 485.025 338.019 461.298 338.019 431.259C338.019 425.031 337.612 418.916 336.194 413.338H336.191V413.339ZM390.941 517.567C385.573 543.43 368.741 562.9 348.05 562.9C335.175 562.9 323.437 555.712 315.2 543.922C316.353 572.556 334.052 595.581 355.352 595.581C377.394 595.581 395.502 570.797 395.502 540.759C395.502 532.311 393.466 524.702 390.939 517.566L390.941 517.567ZM210.259 519.672C208.237 526.184 207.522 533.25 207.522 540.761C207.522 570.798 225.631 595.581 247.673 595.581C268.975 595.581 285.759 572.555 286.912 543.92C278.675 555.709 266.937 562.898 254.061 562.898C233.88 562.898 216.07 544.563 210.261 519.67L210.259 519.672Z" fill="white"/>
<circle cx="161.838" cy="196.516" r="44" fill="#5B1515" stroke="#5B1515" stroke-width="25"/>
<circle cx="443.838" cy="196.516" r="44" fill="#5B1515" stroke="#5B1515" stroke-width="25"/>
</svg>
