<svg width="42" height="49" viewBox="0 0 42 49" fill="none" xmlns="http://www.w3.org/2000/svg">
<path d="M25.2632 12.9298C25.2632 11.6181 25.2632 10.9622 25.5452 10.4737C25.73 10.1537 25.9958 9.88789 26.3158 9.70305C26.8043 9.42105 27.4602 9.42105 28.7719 9.42105H32.2808C33.5924 9.42105 34.2483 9.42105 34.7369 9.70305C35.0569 9.88789 35.3227 10.1537 35.5075 10.4737C35.7895 10.9622 35.7895 11.6181 35.7895 12.9298V14.6842C35.7895 15.6624 35.7895 16.1516 35.7086 16.5583C35.3763 18.2285 34.0707 19.5342 32.4004 19.8664C31.9937 19.9474 31.5046 19.9474 30.5263 19.9474C29.5481 19.9474 29.059 19.9474 28.6522 19.8664C26.982 19.5342 25.6763 18.2285 25.3441 16.5583C25.2632 16.1516 25.2632 15.6624 25.2632 14.6842V12.9298Z" stroke="#5B1515" stroke-width="2"/>
<path d="M27.3684 7.31579C27.3684 6.33487 27.3684 5.8444 27.5287 5.45751C27.7423 4.94167 28.1522 4.53182 28.668 4.31815C29.0549 4.1579 29.5454 4.1579 30.5263 4.1579C31.5073 4.1579 31.9977 4.1579 32.3846 4.31815C32.9004 4.53182 33.3103 4.94167 33.524 5.45751C33.6842 5.8444 33.6842 6.33487 33.6842 7.31579V9.42106H27.3684V7.31579Z" stroke="#5B1515" stroke-width="2"/>
<path d="M30.5263 9.42105V13.6316" stroke="#5B1515" stroke-width="2"/>
<path d="M33.6842 1L31.579 4.15789" stroke="#5B1515" stroke-width="2"/>
<path d="M27.3684 1L29.4737 4.15789" stroke="#5B1515" stroke-width="2"/>
<path d="M25.2632 14.6842H20" stroke="#5B1515" stroke-width="2"/>
<path d="M41.0526 14.6842H35.7895" stroke="#5B1515" stroke-width="2"/>
<path d="M38.9474 7.3158V8.36843C38.9474 10.1125 37.5336 11.5263 35.7895 11.5263" stroke="#5B1515" stroke-width="2"/>
<path d="M38.9474 21C38.9474 19.2559 37.5336 17.8421 35.7895 17.8421" stroke="#5B1515" stroke-width="2"/>
<path d="M22.1053 7.3158V8.36843C22.1053 10.1125 23.5191 11.5263 25.2632 11.5263" stroke="#5B1515" stroke-width="2"/>
<path d="M22.1053 21C22.1053 19.2559 23.5191 17.8421 25.2632 17.8421" stroke="#5B1515" stroke-width="2"/>
<path d="M2.10714 33.7143V35.297L3.33207 34.2948C4.79344 33.0991 6.63029 32.3214 8.57143 32.3214C8.82956 32.3214 8.9864 32.4042 9.07681 32.4946C9.16723 32.585 9.25 32.7419 9.25 33V47.2857C9.25 47.5438 9.16723 47.7007 9.07681 47.7911C8.9864 47.8815 8.82956 47.9643 8.57143 47.9643C4.27136 47.9643 0.75 44.4429 0.75 40.1429V40.1412V40.1395V40.1378V40.1362V40.1345V40.1328V40.1311V40.1295V40.1278V40.1261V40.1244V40.1228V40.1211V40.1194V40.1177V40.1161V40.1144V40.1127V40.111V40.1094V40.1077V40.106V40.1044V40.1027V40.101V40.0993V40.0977V40.096V40.0943V40.0926V40.091V40.0893V40.0876V40.0859V40.0843V40.0826V40.0809V40.0792V40.0776V40.0759V40.0742V40.0725V40.0709V40.0692V40.0675V40.0658V40.0642V40.0625V40.0608V40.0592V40.0575V40.0558V40.0541V40.0525V40.0508V40.0491V40.0474V40.0458V40.0441V40.0424V40.0407V40.0391V40.0374V40.0357V40.034V40.0324V40.0307V40.029V40.0273V40.0257V40.024V40.0223V40.0206V40.019V40.0173V40.0156V40.014V40.0123V40.0106V40.0089V40.0073V40.0056V40.0039V40.0022V40.0006V39.9989V39.9972V39.9955V39.9939V39.9922V39.9905V39.9888V39.9872V39.9855V39.9838V39.9821V39.9805V39.9788V39.9771V39.9754V39.9738V39.9721V39.9704V39.9688V39.9671V39.9654V39.9637V39.9621V39.9604V39.9587V39.957V39.9554V39.9537V39.952V39.9503V39.9487V39.947V39.9453V39.9436V39.942V39.9403V39.9386V39.9369V39.9353V39.9336V39.9319V39.9302V39.9286V39.9269V39.9252V39.9235V39.9219V39.9202V39.9185V39.9169V39.9152V39.9135V39.9118V39.9102V39.9085V39.9068V39.9051V39.9035V39.9018V39.9001V39.8984V39.8968V39.8951V39.8934V39.8917V39.8901V39.8884V39.8867V39.885V39.8834V39.8817V39.88V39.8783V39.8767V39.875V39.8733V39.8717V39.87V39.8683V39.8666V39.865V39.8633V39.8616V39.8599V39.8583V39.8566V39.8549V39.8532V39.8516V39.8499V39.8482V39.8465V39.8449V39.8432V39.8415V39.8398V39.8382V39.8365V39.8348V39.8331V39.8315V39.8298V39.8281V39.8265V39.8248V39.8231V39.8214V39.8198V39.8181V39.8164V39.8147V39.8131V39.8114V39.8097V39.808V39.8064V39.8047V39.803V39.8013V39.7997V39.798V39.7963V39.7946V39.793V39.7913V39.7896V39.7879V39.7863V39.7846V39.7829V39.7812V39.7796V39.7779V39.7762V39.7746V39.7729V39.7712V39.7695V39.7679V39.7662V39.7645V39.7628V39.7612V39.7595V39.7578V39.7561V39.7545V39.7528V39.7511V39.7494V39.7478V39.7461V39.7444V39.7427V39.7411V39.7394V39.7377V39.736V39.7344V39.7327V39.731V39.7294V39.7277V39.726V39.7243V39.7227V39.721V39.7193V39.7176V39.716V39.7143V39.7126V39.7109V39.7093V39.7076V39.7059V39.7042V39.7026V39.7009V39.6992V39.6975V39.6959V39.6942V39.6925V39.6908V39.6892V39.6875V39.6858V39.6842V39.6825V39.6808V39.6791V39.6775V39.6758V39.6741V39.6724V39.6708V39.6691V39.6674V39.6657V39.6641V39.6624V39.6607V39.659V39.6574V39.6557V39.654V39.6523V39.6507V39.649V39.6473V39.6456V39.644V39.6423V39.6406V39.639V39.6373V39.6356V39.6339V39.6323V39.6306V39.6289V39.6272V39.6256V39.6239V39.6222V39.6205V39.6189V39.6172V39.6155V39.6138V39.6122V39.6105V39.6088V39.6071V39.6055V39.6038V39.6021V39.6004V39.5988V39.5971V39.5954V39.5938V39.5921V39.5904V39.5887V39.5871V39.5854V39.5837V39.582V39.5804V39.5787V39.577V39.5753V39.5737V39.572V39.5703V39.5686V39.567V39.5653V39.5636V39.5619V39.5603V39.5586V39.5569V39.5552V39.5536V39.5519V39.5502V39.5485V39.5469V39.5452V39.5435V39.5419V39.5402V39.5385V39.5368V39.5352V39.5335V39.5318V39.5301V39.5285V39.5268V39.5251V39.5234V39.5218V39.5201V39.5184V39.5167V39.5151V39.5134V39.5117V39.51V39.5084V39.5067V39.505V39.5033V39.5017V39.5V39.4983V39.4967V39.495V39.4933V39.4916V39.49V39.4883V39.4866V39.4849V39.4833V39.4816V39.4799V39.4782V39.4766V39.4749V39.4732V39.4715V39.4699V39.4682V39.4665V39.4648V39.4632V39.4615V39.4598V39.4581V39.4565V39.4548V39.4531V39.4515V39.4498V39.4481V39.4464V39.4448V39.4431V39.4414V39.4397V39.4381V39.4364V39.4347V39.433V39.4314V39.4297V39.428V39.4263V39.4247V39.423V39.4213V39.4196V39.418V39.4163V39.4146V39.4129V39.4113V39.4096V39.4079V39.4062V39.4046V39.4029V39.4012V39.3996V39.3979V39.3962V39.3945V39.3929V39.3912V39.3895V39.3878V39.3862V39.3845V39.3828V39.3811V39.3795V39.3778V39.3761V39.3744V39.3728V39.3711V39.3694V39.3677V39.3661V39.3644V39.3627V39.361V39.3594V39.3577V39.356V39.3544V39.3527V39.351V39.3493V39.3477V39.346V39.3443V39.3426V39.341V39.3393V39.3376V39.3359V39.3343V39.3326V39.3309V39.3292V39.3276V39.3259V39.3242V39.3225V39.3209V39.3192V39.3175V39.3158V39.3142V39.3125V39.3108V39.3092V39.3075V39.3058V39.3041V39.3025V39.3008V39.2991V39.2974V39.2958V39.2941V39.2924V39.2907V39.2891V39.2874V39.2857V39.2857V39.2857V39.2857V39.2856V39.2856V39.2856V39.2856V39.2856V39.2856V39.2855V39.2855V39.2855V39.2855V39.2854V39.2854V39.2854V39.2854V39.2854V39.2853V39.2853V39.2853V39.2853V39.2853V39.2853V39.2852V39.2852V39.2852V39.2852V39.2852V39.2851V39.2851V39.2851V39.2851V39.2851V39.285V39.285V39.285V39.285V39.2849V39.2849V39.2849V39.2849V39.2848V39.2848V39.2848V39.2847V39.2847V39.2847V39.2847V39.2846V39.2846V39.2846V39.2845V39.2845V39.2844V39.2844V39.2844V39.2843V39.2843V39.2843V39.2842V39.2842V39.2841V39.2841V39.2841V39.284V39.284V39.2839V39.2839V39.2838V39.2838V39.2837V39.2837V39.2836V39.2836V39.2835V39.2835V39.2834V39.2834V39.2833V39.2833V39.2832V39.2832V39.2831V39.283V39.283V39.2829V39.2829V39.2828V39.2827V39.2827V39.2826V39.2825V39.2825V39.2824V39.2823V39.2823V39.2822V39.2821V39.282V39.282V39.2819V39.2818V39.2817V39.2817V39.2816V39.2815V39.2814V39.2814V39.2813V39.2812V39.2811V39.281V39.2809V39.2808V39.2808V39.2807V39.2806V39.2805V39.2804V39.2803V39.2802V39.2801V39.28V39.2799V39.2798V39.2797V39.2796V39.2795V39.2794V39.2793V39.2792V39.2791V39.279V39.2789V39.2788V39.2786V39.2785V39.2784V39.2783V39.2782V39.2781V39.2779V39.2778V39.2777V39.2776V39.2775V39.2773V39.2772V39.2771V39.2769V39.2768V39.2767V39.2765V39.2764V39.2763V39.2761V39.276V39.2759V39.2757V39.2756V39.2754V39.2753V39.2751V39.275V39.2748V39.2747V39.2745V39.2744V39.2742V39.2741V39.2739V39.2738V39.2736V39.2734V39.2733V39.2731V39.2729V39.2728V39.2726V39.2724V39.2723V39.2721V39.2719V39.2717V39.2715V39.2714V39.2712V39.271V39.2708V39.2706V39.2704V39.2703V39.2701V39.2699V39.2697V39.2695V39.2693V39.2691V39.2689V39.2687V39.2685V39.2683V39.2681V39.2679V39.2676V39.2674V39.2672V39.267V39.2668V39.2666V39.2664V39.2661V39.2659V39.2657V39.2655V39.2652V39.265V39.2648V39.2645V39.2643V39.2641V39.2638V39.2636V39.2633V39.2631V39.2628V39.2626V39.2623V39.2621V39.2618V39.2616V39.2613V39.2611V39.2608V39.2606V39.2603V39.26V39.2598V39.2595V39.2592V39.2589V39.2587V39.2584V39.2581V39.2578V39.2575V39.2573V39.257V39.2567V39.2564V39.2561V39.2558V39.2555V39.2552V39.2549V39.2546V39.2543V39.254V39.2537V39.2534V39.2531V39.2528V39.2524V39.2521V39.2518V39.2515V39.2512V39.2508V39.2505V39.2502V39.2498V39.2495V39.2492V39.2488V39.2485V39.2482V39.2478V39.2475V39.2471V39.2468V39.2464V39.2461V39.2457V39.2453V39.245V39.2446V39.2442V39.2439V39.2435V39.2431V39.2428V39.2424V39.242V39.2416V39.2412V39.2409V39.2405V39.2401V39.2397V39.2393V39.2389V39.2385V39.2381V39.2377V39.2373V39.2369V39.2365V39.2361V39.2356V39.2352V39.2348V39.2344V39.234V39.2335V39.2331V39.2327V39.2322V39.2318V39.2314V39.2309V39.2305V39.23V39.2296V39.2291V39.2287V39.2282V39.2278V39.2273V39.2268V39.2264V39.2259V39.2254V39.225V39.2245V39.224V39.2235V39.2231V39.2226V39.2221V39.2216V39.2211V39.2206V39.2201V39.2196V39.2191V39.2186V39.2181V39.2176V39.2171V39.2166V39.216V39.2155V39.215V39.2145V39.214V39.2134V39.2129V39.2124V39.2118V39.2113V39.2107V39.2102V39.2096V39.2091V39.2085V39.208V39.2074V39.2069V39.2063V39.2057V39.2052V39.2046V39.204V39.2034V39.2028V39.2023V39.2017V39.2011V39.2005V39.1999V39.1993V39.1987V39.1981V39.1975V39.1969V39.1963V39.1957V39.195V39.1944V39.1938V39.1932V39.1926V39.1919V39.1913V39.1907V39.19V39.1894V39.1887V39.1881V39.1874V39.1868V39.1861V39.1855V39.1848V39.1841V39.1835V39.1828V39.1821V39.1814V39.1808V39.1801V39.1794V39.1787V39.178V39.1773V39.1766V39.1759V39.1752V39.1745V39.1738V39.1731V39.1724V39.1716V39.1709V39.1702V39.1695V39.1687V39.168V39.1673V39.1665V39.1658V39.165V39.1643V39.1635V39.1628V39.162V39.1613V39.1605V39.1597V39.159V39.1582V39.1574V39.1566V39.1558V39.155V39.1543V39.1535V39.1527V39.1519V39.1511V39.1503V39.1494V39.1486V39.1478V39.147V39.1462V39.1454V39.1445V39.1437V39.1429V33.1429C0.75 22.4107 9.41768 13.75 20 13.75C30.5823 13.75 39.25 22.4107 39.25 33.1429V39.2857V39.2857V39.2858V39.2858V39.2858V39.2859V39.2859V39.2859V39.286V39.286V39.286V39.2861V39.2861V39.2861V39.2862V39.2862V39.2863V39.2863V39.2863V39.2864V39.2864V39.2865V39.2865V39.2866V39.2866V39.2867V39.2867V39.2867V39.2867V39.2868V39.2868V39.2868V39.2869V39.2869V39.2869V39.287V39.287V39.2871V39.2871V39.2871V39.2872V39.2872V39.2873V39.2873V39.2873V39.2874V39.2874V39.2875V39.2875V39.2876V39.2876V39.2876V39.2877V39.2877V39.2878V39.2878V39.2879V39.2879V39.288V39.2881V39.2881V39.2882V39.2882V39.2883V39.2883V39.2884V39.2885V39.2885V39.2886V39.2886V39.2887V39.2888V39.2888V39.2889V39.289V39.289V39.2891V39.2892V39.2892V39.2893V39.2894V39.2895V39.2895V39.2896V39.2897V39.2898V39.2898V39.2899V39.29V39.2901V39.2902V39.2902V39.2903V39.2904V39.2905V39.2906V39.2907V39.2908V39.2909V39.2909V39.291V39.2911V39.2912V39.2913V39.2914V39.2915V39.2916V39.2917V39.2918V39.2919V39.292V39.2921V39.2922V39.2923V39.2925V39.2926V39.2927V39.2928V39.2929V39.293V39.2931V39.2932V39.2934V39.2935V39.2936V39.2937V39.2939V39.294V39.2941V39.2942V39.2944V39.2945V39.2946V39.2948V39.2949V39.295V39.2952V39.2953V39.2954V39.2956V39.2957V39.2959V39.296V39.2961V39.2963V39.2964V39.2966V39.2967V39.2969V39.297V39.2972V39.2974V39.2975V39.2977V39.2978V39.298V39.2982V39.2983V39.2985V39.2987V39.2988V39.299V39.2992V39.2994V39.2995V39.2997V39.2999V39.3001V39.3002V39.3004V39.3006V39.3008V39.301V39.3012V39.3014V39.3016V39.3018V39.3019V39.3021V39.3023V39.3025V39.3027V39.303V39.3032V39.3034V39.3036V39.3038V39.304V39.3042V39.3044V39.3046V39.3049V39.3051V39.3053V39.3055V39.3057V39.306V39.3062V39.3064V39.3067V39.3069V39.3071V39.3074V39.3076V39.3078V39.3081V39.3083V39.3086V39.3088V39.3091V39.3093V39.3096V39.3098V39.3101V39.3104V39.3106V39.3109V39.3111V39.3114V39.3117V39.3119V39.3122V39.3125V39.3128V39.313V39.3133V39.3136V39.3139V39.3142V39.3145V39.3147V39.315V39.3153V39.3156V39.3159V39.3162V39.3165V39.3168V39.3171V39.3174V39.3177V39.318V39.3184V39.3187V39.319V39.3193V39.3196V39.3199V39.3203V39.3206V39.3209V39.3213V39.3216V39.3219V39.3223V39.3226V39.3229V39.3233V39.3236V39.324V39.3243V39.3247V39.325V39.3254V39.3257V39.3261V39.3265V39.3268V39.3272V39.3275V39.3279V39.3283V39.3287V39.329V39.3294V39.3298V39.3302V39.3306V39.331V39.3314V39.3317V39.3321V39.3325V39.3329V39.3333V39.3337V39.3341V39.3346V39.335V39.3354V39.3358V39.3362V39.3366V39.337V39.3375V39.3379V39.3383V39.3388V39.3392V39.3396V39.3401V39.3405V39.341V39.3414V39.3418V39.3423V39.3427V39.3432V39.3437V39.3441V39.3446V39.345V39.3455V39.346V39.3465V39.3469V39.3474V39.3479V39.3484V39.3489V39.3493V39.3498V39.3503V39.3508V39.3513V39.3518V39.3523V39.3528V39.3533V39.3538V39.3543V39.3549V39.3554V39.3559V39.3564V39.3569V39.3575V39.358V39.3585V39.3591V39.3596V39.3602V39.3607V39.3612V39.3618V39.3623V39.3629V39.3635V39.364V39.3646V39.3651V39.3657V39.3663V39.3668V39.3674V39.368V39.3686V39.3692V39.3698V39.3703V39.3709V39.3715V39.3721V39.3727V39.3733V39.3739V39.3745V39.3752V39.3758V39.3764V39.377V39.3776V39.3783V39.3789V39.3795V39.3801V39.3808V39.3814V39.3821V39.3827V39.3834V39.384V39.3847V39.3853V39.386V39.3866V39.3873V39.388V39.3886V39.3893V39.39V39.3907V39.3914V39.392V39.3927V39.3934V39.3941V39.3948V39.3955V39.3962V39.3969V39.3976V39.3983V39.3991V39.3998V39.4005V39.4012V39.402V39.4027V39.4034V39.4042V39.4049V39.4056V39.4064V39.4071V39.4079V39.4087V39.4094V39.4102V39.4109V39.4117V39.4125V39.4133V39.414V39.4148V39.4156V39.4164V39.4172V39.418V39.4188V39.4196V39.4204V39.4212V39.422V39.4228V39.4236V39.4244V39.4252V39.4261V39.4269V39.4277V39.4286V39.4302V39.4319V39.4336V39.4353V39.4369V39.4386V39.4403V39.442V39.4436V39.4453V39.447V39.4487V39.4503V39.452V39.4537V39.4554V39.457V39.4587V39.4604V39.4621V39.4637V39.4654V39.4671V39.4688V39.4704V39.4721V39.4738V39.4754V39.4771V39.4788V39.4805V39.4821V39.4838V39.4855V39.4872V39.4888V39.4905V39.4922V39.4939V39.4955V39.4972V39.4989V39.5006V39.5022V39.5039V39.5056V39.5073V39.5089V39.5106V39.5123V39.514V39.5156V39.5173V39.519V39.5206V39.5223V39.524V39.5257V39.5273V39.529V39.5307V39.5324V39.534V39.5357V39.5374V39.5391V39.5407V39.5424V39.5441V39.5458V39.5474V39.5491V39.5508V39.5525V39.5541V39.5558V39.5575V39.5592V39.5608V39.5625V39.5642V39.5658V39.5675V39.5692V39.5709V39.5725V39.5742V39.5759V39.5776V39.5792V39.5809V39.5826V39.5843V39.5859V39.5876V39.5893V39.591V39.5926V39.5943V39.596V39.5977V39.5993V39.601V39.6027V39.6044V39.606V39.6077V39.6094V39.611V39.6127V39.6144V39.6161V39.6177V39.6194V39.6211V39.6228V39.6244V39.6261V39.6278V39.6295V39.6311V39.6328V39.6345V39.6362V39.6378V39.6395V39.6412V39.6429V39.6445V39.6462V39.6479V39.6496V39.6512V39.6529V39.6546V39.6562V39.6579V39.6596V39.6613V39.6629V39.6646V39.6663V39.668V39.6696V39.6713V39.673V39.6747V39.6763V39.678V39.6797V39.6814V39.683V39.6847V39.6864V39.6881V39.6897V39.6914V39.6931V39.6948V39.6964V39.6981V39.6998V39.7015V39.7031V39.7048V39.7065V39.7081V39.7098V39.7115V39.7132V39.7148V39.7165V39.7182V39.7199V39.7215V39.7232V39.7249V39.7266V39.7282V39.7299V39.7316V39.7333V39.7349V39.7366V39.7383V39.74V39.7416V39.7433V39.745V39.7467V39.7483V39.75V39.7517V39.7533V39.755V39.7567V39.7584V39.76V39.7617V39.7634V39.7651V39.7667V39.7684V39.7701V39.7718V39.7734V39.7751V39.7768V39.7785V39.7801V39.7818V39.7835V39.7852V39.7868V39.7885V39.7902V39.7919V39.7935V39.7952V39.7969V39.7985V39.8002V39.8019V39.8036V39.8052V39.8069V39.8086V39.8103V39.8119V39.8136V39.8153V39.817V39.8186V39.8203V39.822V39.8237V39.8253V39.827V39.8287V39.8304V39.832V39.8337V39.8354V39.8371V39.8387V39.8404V39.8421V39.8438V39.8454V39.8471V39.8488V39.8504V39.8521V39.8538V39.8555V39.8571V39.8588V39.8605V39.8622V39.8638V39.8655V39.8672V39.8689V39.8705V39.8722V39.8739V39.8756V39.8772V39.8789V39.8806V39.8823V39.8839V39.8856V39.8873V39.889V39.8906V39.8923V39.894V39.8956V39.8973V39.899V39.9007V39.9023V39.904V39.9057V39.9074V39.909V39.9107V39.9124V39.9141V39.9157V39.9174V39.9191V39.9208V39.9224V39.9241V39.9258V39.9275V39.9291V39.9308V39.9325V39.9342V39.9358V39.9375V39.9392V39.9408V39.9425V39.9442V39.9459V39.9475V39.9492V39.9509V39.9526V39.9542V39.9559V39.9576V39.9593V39.9609V39.9626V39.9643V39.966V39.9676V39.9693V39.971V39.9727V39.9743V39.976V39.9777V39.9794V39.981V39.9827V39.9844V39.986V39.9877V39.9894V39.9911V39.9927V39.9944V39.9961V39.9978V39.9994V40.0011V40.0028V40.0045V40.0061V40.0078V40.0095V40.0112V40.0128V40.0145V40.0162V40.0179V40.0195V40.0212V40.0229V40.0246V40.0262V40.0279V40.0296V40.0313V40.0329V40.0346V40.0363V40.0379V40.0396V40.0413V40.043V40.0446V40.0463V40.048V40.0497V40.0513V40.053V40.0547V40.0564V40.058V40.0597V40.0614V40.0631V40.0647V40.0664V40.0681V40.0698V40.0714V40.0731V40.0748V40.0765V40.0781V40.0798V40.0815V40.0831V40.0848V40.0865V40.0882V40.0898V40.0915V40.0932V40.0949V40.0965V40.0982V40.0999V40.1016V40.1032V40.1049V40.1066V40.1083V40.1099V40.1116V40.1133V40.115V40.1166V40.1183V40.12V40.1217V40.1233V40.125V40.1267V40.1283V40.13V40.1317V40.1334V40.135V40.1367V40.1384V40.1401V40.1417V40.1434V40.1451V40.1468V40.1484V40.1501V40.1518V40.1535V40.1551V40.1568V40.1585V40.1602V40.1618V40.1635V40.1652V40.1669V40.1685V40.1702V40.1719V40.1735V40.1752V40.1769V40.1786V40.1802V40.1819V40.1836V40.1853V40.1869V40.1886V40.1903V40.192V40.1936V40.1953V40.197V40.1987V40.2003V40.202V40.2037V40.2054V40.207V40.2087V40.2104V40.2121V40.2137V40.2154V40.2171V40.2188V40.2204V40.2221V40.2238V40.2254V40.2271V40.2288V40.2305V40.2321V40.2338V40.2355V40.2372V40.2388V40.2405V40.2422V40.2439V40.2455V40.2472V40.2489V40.2506V40.2522V40.2539V40.2556V40.2573V40.2589V40.2606V40.2623V40.264V40.2656V40.2673V40.269V40.2706V40.2723V40.274V40.2757V40.2773V40.279V40.2807V40.2824V40.284V40.2857C39.25 44.5858 35.7286 48.1071 31.4286 48.1071C31.1704 48.1071 31.0136 48.0244 30.9232 47.934C30.8328 47.8435 30.75 47.6867 30.75 47.4286V33.1429C30.75 32.8847 30.8328 32.7279 30.9232 32.6375C31.0136 32.5471 31.1704 32.4643 31.4286 32.4643C33.4004 32.4643 35.216 33.1191 36.6384 34.4121L37.8929 35.5526V33.8571V33.1429C37.8929 23.1613 29.8468 15.1071 20 15.1071C10.1572 15.1071 2.10714 23.1572 2.10714 33V33.7143Z" stroke="white" stroke-width="1.5"/>
</svg>
