<svg width="35" height="46" viewBox="0 0 35 46" fill="none" xmlns="http://www.w3.org/2000/svg">
<path d="M27.8428 23.2754C28.546 22.9237 29.2808 22.4995 30 22V26C30 30.1421 23.2842 33.5 15 33.5C6.71573 33.5 0 30.1421 0 26V22C0.7193 22.4995 1.45395 22.9237 2.15733 23.2754C5.7024 25.0479 10.2499 26 15 26C19.7501 26 24.2975 25.0479 27.8428 23.2754Z" fill="white"/>
<path d="M0 34.5V38.5C0 42.6423 6.71573 46 15 46C23.2842 46 30 42.6423 30 38.5V34.5C29.2808 34.9995 28.546 35.4238 27.8428 35.7755C24.2975 37.548 19.7501 38.5 15 38.5C10.2499 38.5 5.7024 37.548 2.15733 35.7755C1.45395 35.4238 0.7193 34.9995 0 34.5Z" fill="white"/>
<path d="M15 6C23.2842 6 30 9.35788 30 13.5C30 17.6421 23.2842 21 15 21C6.71573 21 0 17.6421 0 13.5C0 9.35788 6.71573 6 15 6Z" fill="white"/>
<path d="M29.7002 12.2074C31.6392 9.13025 31.2721 5.00711 28.5945 2.32955C25.4888 -0.776518 20.4354 -0.776518 17.3293 2.32955C14.2236 5.43566 14.2236 10.4887 17.3293 13.5944C20.0065 16.2719 24.1307 16.6388 27.2075 14.7001L32.5071 20L35.0001 17.5073L29.7002 12.2074ZM26.5838 11.5837C24.5869 13.5813 21.3373 13.5813 19.34 11.5837C17.3431 9.58678 17.3435 6.33762 19.3404 4.34031C21.3373 2.34338 24.5869 2.34303 26.5838 4.33999C28.5807 6.33762 28.5807 9.58678 26.5838 11.5837Z" fill="#5B1515"/>
</svg>
