<svg width="44" height="50" viewBox="0 0 44 50" fill="none" xmlns="http://www.w3.org/2000/svg">
<path d="M1.79524e-06 0.0152419L4.68791 3.52428L9.40242 14.5163H13.1936L14.6822 11.2904H13.7096C11.9305 11.2904 10.4837 9.85899 10.4837 8.07992V4.83864H8.87081V0H13.7096V4.83864H12.0967V8.07992C12.0967 8.9687 12.82 9.67745 13.7096 9.67745H15.4265L17.4879 5.21782L15.0186 3.98712L23.1041 0.524153L25.0049 7.17658C25.0566 3.21859 28.288 0.0145645 32.2582 0.0145645C36.2606 0.0145645 39.5163 3.27024 39.5163 7.27261C39.5163 9.69116 38.2913 11.9597 36.2904 13.3008V14.5161H38.2436L38.3694 15.1774C38.7613 17.2105 38.7977 19.3 38.4774 21.3839L43.9791 31.1904L37.9033 32.5783V42.742H29.8388V50H10.4839V38.7621C4.83881 34.7686 1.61463 28.3476 1.61938 21.4976L1.61768 18.5557C1.61768 17.4468 1.72014 16.3074 1.92658 15.1847L2.04598 14.5161H3.62911L1.79524e-06 5.82174V0.0152419ZM12.0969 3.24111V1.62818H10.4839V3.24111H12.0969ZM14.9701 14.5161H18.029L19.4951 11.2902H16.4588L14.9701 14.5161ZM22.0573 2.72983L18.8516 4.1033L19.6081 4.47419L17.2032 9.67745H20.2283L22.1936 5.36381L22.9154 5.72826L22.0573 2.72983ZM19.8008 14.5163H23.3871V12.9187C23.3871 12.0293 22.6637 11.2906 21.7741 11.2906H21.2669L19.8008 14.5163ZM22.9677 7.56203L21.9895 9.71453C23.667 9.82749 25 11.213 25 12.9186V14.5161H28.2259V13.3008C26.6121 12.2193 25.517 10.5315 25.1477 8.65166L22.9677 7.56203ZM37.9032 7.27345C37.9032 4.16139 35.3701 1.62835 32.258 1.62835C29.146 1.62835 26.6129 4.16139 26.6129 7.27345C26.6129 9.27675 27.6951 11.1485 29.4363 12.1573L29.8386 12.3895V14.5161H31.4516V9.54349C30.5152 9.20969 29.8386 8.32244 29.8386 7.27244C29.8386 5.9386 30.9242 4.85303 32.258 4.85303C33.5919 4.85303 34.6774 5.93877 34.6774 7.27261C34.6774 8.32261 34.0009 9.20969 33.0645 9.54366V14.5163H34.6774V12.3895L35.0798 12.1565C36.821 11.1476 37.9032 9.27658 37.9032 7.27345ZM32.258 8.07992C32.7033 8.07992 33.0645 7.71767 33.0645 7.27345C33.0645 6.82822 32.7033 6.46699 32.258 6.46699C31.8128 6.46699 31.4516 6.82822 31.4516 7.27345C31.4516 7.71869 31.8128 8.07992 32.258 8.07992ZM3.40336 16.1292C3.28633 16.9355 3.2274 17.7533 3.2274 18.5484L3.2257 21.496C3.22079 27.9566 6.40873 34.0065 11.7419 37.6782L12.0967 37.9203V48.3872H28.2257V41.1292H36.2904V31.292L41.517 30.0993L36.7961 21.6823L36.842 21.3944C37.1419 19.6299 37.1588 17.742 36.8984 16.1292H36.2904H28.2259H3.40336ZM5.37668 14.5161H7.64841L3.62826 5.14348L1.84038 6.03378L5.37668 14.5161ZM1.61294 4.35479L2.50493 3.90888L1.61294 3.24111V4.35479Z" fill="white"/>
<path d="M29 22.6C30.9847 22.6 32.6 21.4 32.6 19H35C35 22.6 32.3084 25 29 25C25.6915 25 23 22.6 23 19H25.4C25.4002 21.4 27.0153 22.6 29 22.6Z" fill="#5B1515"/>
</svg>
