<svg width="40" height="40" viewBox="0 0 40 40" fill="none" xmlns="http://www.w3.org/2000/svg">
<path d="M18.2251 15.7441V16.2441H18.7251H20.1564C20.4722 16.2441 20.6965 16.3472 20.8406 16.4913C20.9846 16.6354 21.0877 16.8597 21.0877 17.1754C21.0877 17.4912 20.9846 17.7155 20.8406 17.8596C20.6965 18.0036 20.4722 18.1067 20.1564 18.1067H14.4313C14.1155 18.1067 13.8912 18.0036 13.7472 17.8596C13.6031 17.7155 13.5 17.4912 13.5 17.1754C13.5 16.8597 13.6031 16.6354 13.7472 16.4913C13.8912 16.3472 14.1155 16.2441 14.4313 16.2441H15.8626H16.3626V15.7441C16.3626 13.5871 17.9994 11.9503 20.1564 11.9503H23.019C23.562 11.9503 24.0534 11.7671 24.4102 11.4102C24.7671 11.0534 24.9503 10.562 24.9503 10.019C24.9503 9.47599 24.7671 8.98463 24.4102 8.62776C24.0534 8.2709 23.562 8.08771 23.019 8.08771H20.1564C17.9994 8.08771 16.3626 6.4509 16.3626 4.29386V1.43129C16.3626 1.11552 16.4656 0.891242 16.6097 0.747157C16.7538 0.603072 16.9781 0.5 17.2939 0.5C17.6096 0.5 17.8339 0.603072 17.978 0.747157C18.1221 0.891242 18.2251 1.11552 18.2251 1.43129V4.29386C18.2251 4.83687 18.4083 5.32823 18.7652 5.68509C19.1221 6.04196 19.6134 6.22514 20.1564 6.22514H23.019C25.176 6.22514 26.8129 7.86196 26.8129 10.019C26.8129 12.176 25.176 13.8129 23.019 13.8129H20.1564C19.6134 13.8129 19.1221 13.996 18.7652 14.3529C18.4083 14.7098 18.2251 15.2011 18.2251 15.7441Z" fill="#5B1515" stroke="#5B1515"/>
<path d="M37.0036 23.1015L37.0045 23.1024C38.9006 25.134 39.7205 27.8477 39.4495 30.5764C38.9032 34.7845 35.5018 38.1884 31.4242 38.8702C26.796 39.5486 22.4583 36.9682 20.9597 32.635C20.8136 32.0992 20.3337 31.8509 19.9083 31.8509C19.4838 31.8509 19.005 32.0981 18.8579 32.6317C17.4903 36.436 13.9581 39.0073 9.88933 39.0073C7.30636 39.0073 4.86425 37.9184 3.24343 36.1625L3.23665 36.1551L3.22958 36.148C1.32259 34.2411 0.377334 31.8015 0.512762 29.2283L0.512935 29.2283L0.51328 29.2152C0.648878 24.0625 4.99219 19.9693 10.3187 19.9693H29.9273C32.6421 19.9693 35.2314 21.193 37.0036 23.1015ZM28.5633 28.1328L28.4169 27.9864H28.3372C28.3163 27.97 28.2923 27.9528 28.2658 27.9369C28.2375 27.9199 28.2078 27.905 28.1768 27.8923C28.1755 27.8911 28.1743 27.89 28.173 27.8889C28.1375 27.8569 28.0808 27.8092 28.004 27.7708C27.9538 27.7457 27.9029 27.7293 27.8556 27.7187C27.8211 27.6901 27.775 27.6563 27.7177 27.6277C27.5678 27.5527 27.4124 27.5558 27.3619 27.5568C27.3574 27.5569 27.3538 27.557 27.351 27.557C27.0861 27.557 26.7861 27.6004 26.5062 27.6865C26.2334 27.7704 25.9327 27.9094 25.7093 28.1328L25.7 28.1421C25.6351 28.207 25.5415 28.3005 25.466 28.4011C25.4148 28.4694 25.3455 28.5745 25.3065 28.7088C25.213 28.8572 25.1758 29.0139 25.1582 29.1198C25.1334 29.2685 25.1334 29.4104 25.1335 29.4816L25.1335 29.4883C25.1335 29.5935 25.1575 29.6911 25.1735 29.7496C25.1906 29.8124 25.2122 29.8774 25.2289 29.9272L25.2307 29.9327C25.2497 29.9896 25.2628 30.0294 25.2719 30.0627C25.2743 30.0718 25.2759 30.0784 25.2769 30.0828C25.2837 30.3068 25.3932 30.4784 25.466 30.5755C25.5415 30.6761 25.6351 30.7696 25.7 30.8345L25.7093 30.8438C25.8819 31.0164 26.0745 31.1658 26.3071 31.2691C26.5418 31.3735 26.7917 31.4196 27.0648 31.4196C27.3378 31.4196 27.5877 31.3735 27.8224 31.2691C28.055 31.1658 28.2476 31.0164 28.4202 30.8438L28.6349 30.6291L28.8496 30.4144C29.032 30.232 29.0908 29.9988 29.1145 29.8568C29.1393 29.7081 29.1392 29.5662 29.1392 29.495L29.1392 29.4883C29.1392 29.3831 29.1151 29.2855 29.0992 29.227C29.0821 29.1642 29.0604 29.0993 29.0438 29.0495L29.0419 29.0439C29.023 28.987 29.0099 28.9472 29.0008 28.9139C28.9983 28.9048 28.9967 28.8982 28.9957 28.8938C28.9889 28.6698 28.8794 28.4982 28.8066 28.4011C28.7311 28.3005 28.6375 28.207 28.5726 28.1421L28.5633 28.1328ZM28.4282 28.0691C28.4295 28.0703 28.4301 28.0709 28.4301 28.0709C28.4301 28.0709 28.4295 28.0704 28.4282 28.0691ZM31.4259 30.9954L31.2795 30.849H31.1998C31.1789 30.8325 31.1548 30.8154 31.1283 30.7995C31.1001 30.7825 31.0704 30.7676 31.0394 30.7549C31.0381 30.7537 31.0369 30.7526 31.0356 30.7514C31.0001 30.7195 30.9433 30.6718 30.8666 30.6334C30.8163 30.6083 30.7655 30.5919 30.7182 30.5813C30.6837 30.5527 30.6376 30.5189 30.5803 30.4903C30.4304 30.4153 30.275 30.4184 30.2245 30.4194C30.22 30.4195 30.2163 30.4196 30.2136 30.4196C29.9487 30.4196 29.6486 30.4629 29.3688 30.549C29.0959 30.633 28.7953 30.772 28.5719 30.9954L28.5626 31.0047C28.4977 31.0696 28.4041 31.163 28.3286 31.2637C28.2774 31.332 28.2081 31.4371 28.1691 31.5714C28.0756 31.7198 28.0384 31.8765 28.0207 31.9824C27.996 32.1311 27.996 32.273 27.996 32.3441L27.996 32.3509C27.996 32.456 28.0201 32.5537 28.036 32.6121C28.0532 32.675 28.0748 32.7399 28.0914 32.7898L28.0933 32.7952C28.1122 32.8521 28.1254 32.892 28.1344 32.9252C28.1369 32.9344 28.1385 32.941 28.1395 32.9454C28.1463 33.1693 28.2558 33.3409 28.3286 33.4381C28.4041 33.5387 28.4977 33.6322 28.5626 33.697L28.5719 33.7063C28.7445 33.879 28.937 34.0283 29.1696 34.1317C29.4044 34.2361 29.6543 34.2822 29.9273 34.2822C30.2004 34.2822 30.4502 34.2361 30.685 34.1317C30.9176 34.0283 31.1101 33.879 31.2828 33.7063L31.2921 33.697C31.357 33.6322 31.4506 33.5387 31.526 33.4381C31.5747 33.3732 31.6397 33.275 31.6796 33.1502C31.7516 33.0564 31.8127 32.9544 31.8595 32.8607C31.9208 32.7382 32.0017 32.5438 32.0017 32.3509C32.0017 32.2457 31.9777 32.148 31.9618 32.0896C31.9446 32.0268 31.923 31.9619 31.9064 31.9121L31.9045 31.9065C31.8856 31.8496 31.8724 31.8098 31.8634 31.7765C31.8609 31.7674 31.8593 31.7607 31.8583 31.7564C31.8515 31.5324 31.742 31.3608 31.6692 31.2637C31.5937 31.163 31.5001 31.0696 31.4352 31.0047L31.4259 30.9954ZM31.2927 30.9335C31.2928 30.9336 31.2922 30.933 31.2908 30.9317C31.2919 30.9327 31.2926 30.9333 31.2927 30.9335ZM34.2885 28.1328L34.142 27.9864H33.9991C33.999 27.9863 33.9988 27.9861 33.9987 27.986C33.9982 27.9856 33.9978 27.9853 33.9975 27.985L33.9966 27.9841C33.9659 27.9533 33.9306 27.9181 33.8982 27.8889C33.8627 27.8569 33.8059 27.8092 33.7291 27.7708C33.6789 27.7457 33.6281 27.7294 33.5808 27.7188C33.5463 27.6902 33.5002 27.6563 33.4429 27.6277C33.2929 27.5527 33.1375 27.5558 33.0871 27.5568C33.0826 27.5569 33.0789 27.557 33.0762 27.557C32.8112 27.557 32.5112 27.6004 32.2314 27.6865C31.9585 27.7704 31.6578 27.9094 31.4344 28.1328L31.4251 28.1421C31.3602 28.207 31.2667 28.3005 31.1912 28.4011C31.14 28.4694 31.0706 28.5745 31.0316 28.7088C30.9382 28.8572 30.901 29.0139 30.8833 29.1198C30.8585 29.2685 30.8586 29.4104 30.8586 29.4816L30.8586 29.4883C30.8586 29.5935 30.8827 29.6911 30.8986 29.7496C30.9157 29.8124 30.9374 29.8774 30.954 29.9272L30.9558 29.9327C30.9748 29.9896 30.9879 30.0294 30.997 30.0627C30.9995 30.0718 31.0011 30.0784 31.0021 30.0828C31.0089 30.3068 31.1183 30.4784 31.1912 30.5755C31.2667 30.6761 31.3602 30.7696 31.4251 30.8345L31.4344 30.8438C31.6071 31.0164 31.7996 31.1658 32.0322 31.2691C32.267 31.3735 32.5169 31.4196 32.7899 31.4196C33.0629 31.4196 33.3128 31.3735 33.5476 31.2691C33.7802 31.1658 33.9727 31.0164 34.1454 30.8438L34.1547 30.8344C34.2196 30.7696 34.3131 30.6761 34.3886 30.5755C34.4373 30.5106 34.5023 30.4124 34.5421 30.2876C34.6142 30.1939 34.6752 30.0918 34.7221 29.9982C34.7834 29.8756 34.8643 29.6812 34.8643 29.4883C34.8643 29.3831 34.8403 29.2855 34.8243 29.227C34.8072 29.1642 34.7855 29.0991 34.7689 29.0493L34.7671 29.0439C34.7481 28.987 34.735 28.9472 34.7259 28.9139C34.7234 28.9048 34.7218 28.8982 34.7208 28.8938C34.714 28.6698 34.6046 28.4982 34.5317 28.4011C34.4563 28.3005 34.3627 28.207 34.2978 28.1421L34.2885 28.1328ZM11.8206 27.557V26.6257C11.8206 26.0827 11.6374 25.5914 11.2806 25.2345C10.9237 24.8776 10.4323 24.6944 9.88933 24.6944C9.34632 24.6944 8.85495 24.8776 8.49809 25.2345C8.14122 25.5914 7.95804 26.0827 7.95804 26.6257V27.557H7.02675C6.48374 27.557 5.99238 27.7402 5.63552 28.0971C5.27865 28.4539 5.09547 28.9453 5.09547 29.4883C5.09547 30.0313 5.27865 30.5227 5.63552 30.8795C5.99238 31.2364 6.48374 31.4196 7.02675 31.4196H7.95804V32.3509C7.95804 32.8939 8.14122 33.3852 8.49809 33.7421C8.85495 34.099 9.34632 34.2822 9.88933 34.2822C10.4323 34.2822 10.9237 34.099 11.2806 33.7421C11.6374 33.3852 11.8206 32.8939 11.8206 32.3509V31.4196H12.7519C13.2949 31.4196 13.7863 31.2364 14.1431 30.8795C14.5 30.5227 14.6832 30.0313 14.6832 29.4883C14.6832 28.9453 14.5 28.4539 14.1431 28.0971C13.7863 27.7402 13.2949 27.557 12.7519 27.557H11.8206ZM28.5719 25.2703L28.5626 25.2796C28.4977 25.3444 28.4041 25.4379 28.3286 25.5385C28.2774 25.6068 28.2081 25.712 28.1691 25.8462C28.0756 25.9947 28.0384 26.1513 28.0207 26.2573C27.996 26.406 27.996 26.5478 27.996 26.619L27.996 26.6257C27.996 26.7309 28.0201 26.8286 28.036 26.887C28.0532 26.9498 28.0748 27.0148 28.0914 27.0646L28.0933 27.0701C28.1122 27.127 28.1254 27.1668 28.1344 27.2001C28.1369 27.2092 28.1385 27.2159 28.1395 27.2202C28.1463 27.4442 28.2558 27.6158 28.3286 27.7129C28.4041 27.8136 28.4977 27.907 28.5626 27.9719L28.5719 27.9812C28.7445 28.1538 28.937 28.3032 29.1696 28.4066C29.4044 28.5109 29.6543 28.557 29.9273 28.557C30.2004 28.557 30.4502 28.5109 30.685 28.4066C30.9176 28.3032 31.1101 28.1538 31.2828 27.9812C31.4123 27.8516 31.4786 27.7187 31.5154 27.6449L31.5196 27.6365C31.5549 27.566 31.5604 27.5604 31.5687 27.5521L31.569 27.5518C31.7514 27.3694 31.8102 27.1362 31.8339 26.9942C31.8587 26.8455 31.8586 26.7036 31.8586 26.6325L31.8586 26.6257C31.8586 26.5206 31.8346 26.4229 31.8186 26.3645C31.8015 26.3017 31.7798 26.2367 31.7632 26.1869L31.7614 26.1814C31.7424 26.1245 31.7293 26.0846 31.7202 26.0514C31.7177 26.0422 31.7161 26.0356 31.7151 26.0312C31.7083 25.8073 31.5989 25.6357 31.526 25.5385C31.4505 25.4379 31.357 25.3444 31.2921 25.2796L31.2828 25.2703C30.515 24.5025 29.3396 24.5025 28.5719 25.2703Z" fill="white" stroke="white"/>
</svg>
