<svg xmlns="http://www.w3.org/2000/svg" width="36.737" height="36.125" viewBox="0 0 36.737 36.125">
  <path id="github-mark" d="M18.384,0A18.539,18.539,0,0,0,12.57,36.09c.913.184,1.248-.4,1.248-.889,0-.429-.03-1.9-.03-3.434-5.114,1.1-6.179-2.208-6.179-2.208a4.732,4.732,0,0,0-2.04-2.7c-1.674-1.135.122-1.135.122-1.135a3.855,3.855,0,0,1,2.831,1.9,3.894,3.894,0,0,0,5.357,1.533,3.946,3.946,0,0,1,1.157-2.484c-4.079-.429-8.37-2.024-8.37-9.138a7.25,7.25,0,0,1,1.887-4.967,6.736,6.736,0,0,1,.183-4.906s1.552-.491,5.052,1.9a17.525,17.525,0,0,1,9.192,0c3.5-2.392,5.053-1.9,5.053-1.9a6.735,6.735,0,0,1,.183,4.906A7.111,7.111,0,0,1,30.1,17.539c0,7.114-4.291,8.677-8.4,9.138a4.4,4.4,0,0,1,1.248,3.434c0,2.484-.03,4.477-.03,5.09,0,.491.335,1.074,1.248.89A18.539,18.539,0,0,0,18.384,0Z" fill="#fff" fill-rule="evenodd"/>
</svg>
