<svg xmlns="http://www.w3.org/2000/svg" width="36" height="32.385" viewBox="0 0 36 32.385">
  <path id="Itch_White" d="M4.693.2C3.123,1.133.029,4.687,0,5.619V7.162a3.829,3.829,0,0,0,3.488,3.675A3.672,3.672,0,0,0,7.142,7.224a3.622,3.622,0,0,0,3.6,3.612,3.578,3.578,0,0,0,3.545-3.612,3.711,3.711,0,0,0,3.7,3.612h.036a3.711,3.711,0,0,0,3.7-3.612,3.579,3.579,0,0,0,3.545,3.612,3.622,3.622,0,0,0,3.6-3.612,3.672,3.672,0,0,0,3.654,3.612A3.829,3.829,0,0,0,36,7.162V5.619C35.971,4.687,32.877,1.132,31.307.2,26.426.029,23.043,0,18,0S6.082.079,4.693.2Zm9.565,9.715a4.113,4.113,0,0,1-.7.9,4.182,4.182,0,0,1-5.847,0,3.91,3.91,0,0,1-.669-.885h0a4.135,4.135,0,0,1-.727.886A4.181,4.181,0,0,1,3.386,12.01a1.262,1.262,0,0,1-.395-.077c-.16,1.668-.228,3.263-.252,4.426v.007c0,.59-.006,1.076-.009,1.75.031,3.5-.347,11.346,1.543,13.274,2.929.683,8.319.994,13.726,1h0c5.407,0,10.8-.313,13.726-1,1.89-1.928,1.513-9.773,1.543-13.274,0-.674-.006-1.16-.009-1.75v-.007c-.024-1.163-.091-2.757-.252-4.426a1.261,1.261,0,0,1-.4.077,4.182,4.182,0,0,1-2.927-1.191,4.135,4.135,0,0,1-.727-.886h0a3.911,3.911,0,0,1-.67.885,4.182,4.182,0,0,1-5.847,0,4.114,4.114,0,0,1-.7-.9,4.1,4.1,0,0,1-.695.9A4.18,4.18,0,0,1,18.12,12.01l-.119,0h0l-.119,0a4.18,4.18,0,0,1-2.927-1.192,4.109,4.109,0,0,1-.695-.9ZM11.253,13.8v0h0a4.016,4.016,0,0,1,3.558,1.43A30.34,30.34,0,0,1,18,15.073h0a30.37,30.37,0,0,1,3.187.161,4.016,4.016,0,0,1,3.558-1.43h0v0c.562,0,2.812,0,4.38,4.4l1.684,6.04c1.248,4.493-.4,4.6-2.454,4.607a4.615,4.615,0,0,1-4.734-4.539A35.773,35.773,0,0,1,18,24.727h0a35.757,35.757,0,0,1-5.622-.415,4.616,4.616,0,0,1-4.734,4.539c-2.055,0-3.7-.114-2.454-4.607L6.874,18.2c1.568-4.4,3.817-4.4,4.38-4.4ZM18,17.262h0a32.645,32.645,0,0,0-3.784,3.993l2.1-.084V23A6.27,6.27,0,0,0,18,23.013h0A6.27,6.27,0,0,0,19.686,23v-1.83l2.1.084A32.659,32.659,0,0,0,18,17.263h0Z" fill="#fff"/>
</svg>
