<svg xmlns="http://www.w3.org/2000/svg" width="36.737" height="36.737" viewBox="0 0 36.737 36.737">
  <path id="linked_in_logo_0mwsp0ss153u" d="M18.368,0A18.368,18.368,0,1,0,36.737,18.368,18.368,18.368,0,0,0,18.368,0ZM13.162,27.457H9.068V14.612h4.094ZM11.115,12.93a2.3,2.3,0,1,1,2.3-2.3A2.3,2.3,0,0,1,11.115,12.93ZM27.926,27.457H23.908V20.434c0-.357.056-2.723-1.953-2.723a2.221,2.221,0,0,0-1.843.9,2.808,2.808,0,0,0-.561,1.708v7.136H15.538V14.612h3.818v1.8a4.637,4.637,0,0,1,8.569,2.391Z" fill="#fff"/>
</svg>
