<svg width="54" height="48" viewBox="0 0 54 48" fill="none" xmlns="http://www.w3.org/2000/svg">
<path d="M53.447 8.88773C53.447 9.18245 53.3299 9.46509 53.1215 9.67349C52.9131 9.88188 52.6305 9.99896 52.3358 9.99896H49.7344L46.6896 17.1041C46.5966 17.3127 46.4425 17.4881 46.2476 17.6071C46.0528 17.7262 45.8264 17.7833 45.5984 17.7709C45.369 17.7567 45.1496 17.6717 44.9704 17.5276C44.7913 17.3835 44.6613 17.1874 44.5983 16.9664L41.2946 5.40403L37.8565 19.1577C37.7995 19.388 37.6702 19.594 37.4876 19.7456C37.3051 19.8972 37.0788 19.9863 36.8419 20H36.7786C36.5524 20.0002 36.3315 19.9314 36.1454 19.8027C35.9594 19.6741 35.817 19.4917 35.7374 19.2799L32.6748 11.1102H30.1112C29.8165 11.1102 29.5339 10.9931 29.3255 10.7847C29.1171 10.5763 29 10.2937 29 9.99896C29 9.70424 29.1171 9.4216 29.3255 9.2132C29.5339 9.00481 29.8165 8.88773 30.1112 8.88773H33.4449C33.6711 8.88751 33.892 8.95633 34.0781 9.085C34.2641 9.21367 34.4065 9.39607 34.4861 9.60781L36.5663 15.1573L40.1456 0.840226C40.2052 0.603201 40.3413 0.392438 40.5328 0.240571C40.7243 0.0887028 40.9605 0.00420228 41.2049 0.000152644C41.4492 -0.00389699 41.6881 0.0727302 41.8845 0.21817C42.081 0.363609 42.224 0.569747 42.2914 0.804667L45.8784 13.3615L47.9809 8.45546C48.0657 8.25458 48.2077 8.08309 48.3893 7.96236C48.5709 7.84163 48.784 7.77699 49.0021 7.7765H52.3358C52.6305 7.7765 52.9131 7.89358 53.1215 8.10198C53.3299 8.31037 53.447 8.59302 53.447 8.88773Z" fill="#5B1515"/>
<path d="M1.3385 47.2928L0.707035 46.6614L3.61115 43.7573L4.24262 44.3887L1.3385 47.2928Z" stroke="white"/>
<path d="M1.33994 47.2674L0.72184 46.6493L3.6198 43.7723L4.23184 44.3968L1.33994 47.2674Z" stroke="white"/>
<mask id="path-4-inside-1_21_47" fill="white">
<path d="M20.6002 19.5306L3.39648 40.2237L7.77623 44.6034L28.4692 27.3996L20.6002 19.5306ZM7.77623 44.6035L28.4692 27.3996Z"/>
</mask>
<path d="M20.6002 19.5306L21.3073 18.8235L20.5321 18.0483L19.8313 18.8913L20.6002 19.5306ZM3.39648 40.2237L2.62752 39.5844L2.04439 40.2858L2.68938 40.9308L3.39648 40.2237ZM7.77623 44.6034L7.06912 45.3105L7.71411 45.9555L8.41552 45.3724L7.77623 44.6034ZM28.4692 27.3996L29.1085 28.1685L29.9515 27.4677L29.1763 26.6925L28.4692 27.3996ZM19.8313 18.8913L2.62752 39.5844L4.16544 40.8629L21.3692 20.1699L19.8313 18.8913ZM2.68938 40.9308L7.06912 45.3105L8.48333 43.8963L4.10359 39.5165L2.68938 40.9308ZM8.41552 45.3724L29.1085 28.1685L27.8299 26.6306L7.13693 43.8344L8.41552 45.3724ZM29.1763 26.6925L21.3073 18.8235L19.8931 20.2377L27.7621 28.1067L29.1763 26.6925ZM8.41553 45.3724L29.1085 28.1685L27.8299 26.6306L7.13693 43.8345L8.41553 45.3724Z" fill="white" mask="url(#path-4-inside-1_21_47)"/>
<path d="M7.80874 43.9023L4.08598 40.1796L20.6477 20.2842L27.7153 27.3776L7.80874 43.9023Z" fill="white" stroke="white"/>
<path d="M36.2768 24.1402C34.6838 25.4546 32.7421 26.1326 30.7914 26.1552L21.8446 17.2084C21.8674 15.2577 22.5453 13.316 23.8596 11.7231L36.2768 24.1402Z" stroke="white"/>
<path d="M36.2608 24.1498C34.71 25.4078 32.7901 26.1137 30.7917 26.1367L21.8583 17.1959C21.8859 15.2058 22.5917 13.2891 23.8729 11.7365L36.2608 24.1498Z" fill="white" stroke="white"/>
<path d="M36.9196 11.0803L36.9196 11.0803C39.6985 13.8592 40.2305 18.0292 38.5273 21.3503L26.6495 9.4726C29.9706 7.7694 34.1407 8.30136 36.9196 11.0803Z" stroke="white"/>
<path d="M36.9064 11.0933C39.6294 13.8165 40.2532 17.9346 38.5227 21.3192L26.6694 9.4658C27.9072 8.85058 29.2845 8.51852 30.6876 8.51852C33.0384 8.51852 35.2453 9.43238 36.9064 11.0933Z" fill="white" stroke="white"/>
</svg>
