<svg width="40" height="51" viewBox="0 0 40 51" fill="none" xmlns="http://www.w3.org/2000/svg">
<path d="M24.4444 48.1667H24.9444V47.6667V14.3333V13.8333H24.4444H3.3333H2.8333V14.3333V47.6667V48.1667H3.3333H24.4444ZM27.2778 50.5H0.5V11.5H27.2778V50.5Z" fill="white" stroke="white"/>
<path d="M18.2778 37.1111V37.1111C18.2778 34.6906 16.3093 32.7222 13.8889 32.7222C11.4684 32.7222 9.49998 34.6907 9.49998 37.1111C9.49998 39.5316 11.4685 41.5 13.8889 41.5C16.3094 41.5 18.2777 39.5315 18.2778 37.1111ZM7.16669 37.1111C7.16669 33.4049 10.1827 30.3889 13.8889 30.3889C17.5951 30.3889 20.6111 33.4049 20.6111 37.1111C20.6111 40.8173 17.5951 43.8333 13.8889 43.8333C10.1827 43.8333 7.16669 40.8173 7.16669 37.1111Z" fill="white" stroke="white"/>
<path d="M16.0556 22.6667V22.6666C16.0556 21.4715 15.0841 20.5 13.8889 20.5C12.6937 20.5 11.7222 21.4715 11.7222 22.6666C11.7222 23.8618 12.6937 24.8333 13.8889 24.8333C15.084 24.8333 16.0555 23.8618 16.0556 22.6667ZM9.38892 22.6666C9.38892 20.1858 11.4081 18.1667 13.8889 18.1667C16.3697 18.1667 18.3889 20.1858 18.3889 22.6666C18.3889 25.1475 16.3698 27.1666 13.8889 27.1666C11.408 27.1666 9.38892 25.1475 9.38892 22.6666Z" fill="white" stroke="white"/>
<path d="M19.223 10.0973C18.6421 12.2651 18.9462 14.5749 20.0683 16.5185C21.1905 18.4621 23.0388 19.8804 25.2066 20.4613C27.3744 21.0421 29.6842 20.738 31.6278 19.6159C33.5715 18.4937 34.9897 16.6454 35.5706 14.4776M19.223 10.0973C19.8038 7.92946 21.2221 6.08117 23.1657 4.95902C25.1093 3.83687 27.4191 3.53278 29.5869 4.11365C31.7548 4.69452 33.603 6.11276 34.7252 8.05638C35.8473 10 36.1514 12.3098 35.5706 14.4776M19.223 10.0973L17.5882 9.65926M35.5706 14.4776L37.2053 14.9157M35.5706 14.4776L27.3968 12.2875L24.7688 2.47805M17.2814 13.1713L18.9679 13.0239M35.8273 11.5491L37.5138 11.4018M18.1941 16.579L19.7289 15.8642M35.0668 8.71129L36.6006 7.99622M20.2173 19.469L21.4143 18.2712L27.3989 12.288M33.3814 6.30431L34.5784 5.10654M23.1062 21.4906L23.8209 19.9568M30.9737 4.6184L31.6884 3.08463M26.512 22.4031L26.66 20.7175M28.1347 3.85768L28.2826 2.17206M30.025 22.0958L29.587 20.4611M33.2208 20.6054L32.2501 19.2192M22.5449 5.35487L21.573 3.96844M35.7158 18.1119L34.3289 17.1411M20.4668 7.43443L19.0802 6.4625" stroke="#5B1515" stroke-width="2" stroke-linecap="round" stroke-linejoin="round"/>
</svg>
