<svg width="42" height="34" viewBox="0 0 42 34" fill="none" xmlns="http://www.w3.org/2000/svg">
<path d="M1.00873 27.71H0.758728V27.96V29.21V29.46H1.00873H41H41.25V29.21V27.96V27.71H41H1.00873Z" fill="white" stroke="white" stroke-width="0.5"/>
<path d="M1 31.4062H0.75V31.6562V32.9062V33.1562H1H40.99H41.24V32.9062V31.6562V31.4062H40.99H1Z" fill="white" stroke="white" stroke-width="0.5"/>
<path d="M27.835 1.30249H27.71V1.42749V6.96749V7.09249H27.835H41H41.125V6.96749V1.42749V1.30249H41H27.835ZM39.625 5.59249H29.21V2.80249H39.625V5.59249Z" fill="#5B1515" stroke="#5B1515" stroke-width="0.25"/>
<path d="M27.835 16.8025H27.71V16.9275V22.4675V22.5925H27.835H41H41.125V22.4675V16.9275V16.8025H41H27.835ZM39.625 21.0925H29.21V18.3025H39.625V21.0925Z" fill="#5B1515" stroke="#5B1515" stroke-width="0.25"/>
<path d="M27.835 9.0625H27.71V9.1875V14.7275V14.8525H27.835H41H41.125V14.7275V9.1875V9.0625H41H27.835ZM39.625 13.3512H29.21V10.5612H39.625V13.3512Z" fill="#5B1515" stroke="#5B1515" stroke-width="0.25"/>
<path d="M8.80033 6.29441L8.42377 6.07337V6.51001V17.405V17.8417L8.80033 17.6206L18.0803 12.1731L18.4476 11.9575L18.0803 11.7419L8.80033 6.29441ZM10.1738 14.7834V9.12915L14.9899 11.9563L10.1738 14.7834Z" fill="white" stroke="white" stroke-width="0.5"/>
<path d="M20.7213 0.750001H4.2675C2.32378 0.748701 0.75 2.34879 0.75 4.3075V19.5888C0.75 21.5463 2.32397 23.1462 4.2675 23.1462H20.7213C22.6612 23.1462 24.235 21.5462 24.235 19.5888V4.3075C24.235 2.34878 22.6612 0.750001 20.7213 0.750001ZM22.4837 19.5888C22.4837 20.5907 21.687 21.3962 20.72 21.3962H4.2675C3.29774 21.3962 2.5 20.5904 2.5 19.5875V4.3075C2.5 3.30586 3.29774 2.5 4.26625 2.5H20.72C21.6881 2.5 22.4837 3.30545 22.4837 4.3075V19.5888Z" fill="white" stroke="white" stroke-width="0.5"/>
</svg>
